<svg width="622" height="418" viewBox="0 0 622 418" fill="none" xmlns="http://www.w3.org/2000/svg">
<rect width="622" height="418" fill="white"/>
<path d="M65.5181 334.98V329.909H89.4102V334.98H80.5039V359H74.4244V334.98H65.5181ZM100.01 359.426C97.766 359.426 95.8342 358.972 94.2148 358.062C92.605 357.144 91.3645 355.847 90.4933 354.17C89.622 352.485 89.1864 350.491 89.1864 348.19C89.1864 345.946 89.622 343.976 90.4933 342.281C91.3645 340.586 92.5908 339.265 94.1722 338.318C95.7631 337.371 97.6287 336.898 99.7688 336.898C101.208 336.898 102.548 337.13 103.789 337.594C105.039 338.048 106.128 338.735 107.056 339.653C107.993 340.572 108.722 341.727 109.243 343.119C109.764 344.502 110.025 346.121 110.025 347.977V349.639H91.6012V345.889H104.328C104.328 345.018 104.139 344.246 103.76 343.574C103.382 342.902 102.856 342.376 102.184 341.997C101.521 341.609 100.749 341.415 99.8683 341.415C98.9497 341.415 98.1353 341.628 97.4251 342.054C96.7243 342.471 96.1751 343.034 95.7773 343.744C95.3796 344.445 95.176 345.226 95.1665 346.088V349.653C95.1665 350.733 95.3654 351.666 95.7631 352.452C96.1703 353.238 96.7433 353.844 97.4819 354.27C98.2205 354.696 99.0965 354.909 100.11 354.909C100.782 354.909 101.398 354.814 101.956 354.625C102.515 354.436 102.993 354.152 103.391 353.773C103.789 353.394 104.092 352.93 104.3 352.381L109.897 352.75C109.613 354.095 109.03 355.269 108.15 356.273C107.278 357.267 106.151 358.044 104.769 358.602C103.396 359.152 101.81 359.426 100.01 359.426ZM113.973 359V337.182H119.84V340.989H120.067C120.465 339.634 121.132 338.612 122.07 337.92C123.007 337.22 124.087 336.869 125.309 336.869C125.612 336.869 125.938 336.888 126.289 336.926C126.639 336.964 126.947 337.016 127.212 337.082V342.452C126.928 342.366 126.535 342.291 126.033 342.224C125.531 342.158 125.072 342.125 124.655 342.125C123.765 342.125 122.97 342.319 122.269 342.707C121.578 343.086 121.028 343.616 120.621 344.298C120.223 344.98 120.025 345.766 120.025 346.656V359H113.973ZM130.341 359V337.182H136.207V340.989H136.434C136.832 339.634 137.5 338.612 138.437 337.92C139.375 337.22 140.454 336.869 141.676 336.869C141.979 336.869 142.306 336.888 142.656 336.926C143.006 336.964 143.314 337.016 143.579 337.082V342.452C143.295 342.366 142.902 342.291 142.4 342.224C141.898 342.158 141.439 342.125 141.022 342.125C140.132 342.125 139.337 342.319 138.636 342.707C137.945 343.086 137.395 343.616 136.988 344.298C136.591 344.98 136.392 345.766 136.392 346.656V359H130.341ZM152.304 359.412C150.912 359.412 149.672 359.17 148.583 358.688C147.494 358.195 146.632 357.471 145.998 356.514C145.373 355.548 145.06 354.346 145.06 352.906C145.06 351.694 145.283 350.676 145.728 349.852C146.173 349.028 146.779 348.366 147.546 347.864C148.313 347.362 149.184 346.983 150.159 346.727C151.144 346.472 152.176 346.292 153.256 346.188C154.525 346.055 155.548 345.932 156.324 345.818C157.101 345.695 157.664 345.515 158.015 345.278C158.365 345.042 158.54 344.691 158.54 344.227V344.142C158.54 343.242 158.256 342.546 157.688 342.054C157.129 341.562 156.334 341.315 155.301 341.315C154.212 341.315 153.346 341.557 152.702 342.04C152.058 342.513 151.632 343.11 151.424 343.83L145.827 343.375C146.111 342.049 146.67 340.903 147.503 339.938C148.337 338.962 149.411 338.214 150.728 337.693C152.053 337.163 153.587 336.898 155.33 336.898C156.542 336.898 157.702 337.04 158.81 337.324C159.927 337.608 160.917 338.048 161.779 338.645C162.65 339.241 163.337 340.009 163.838 340.946C164.34 341.874 164.591 342.987 164.591 344.284V359H158.853V355.974H158.682C158.332 356.656 157.863 357.258 157.276 357.778C156.689 358.29 155.983 358.692 155.159 358.986C154.336 359.27 153.384 359.412 152.304 359.412ZM154.037 355.236C154.927 355.236 155.713 355.061 156.395 354.71C157.077 354.35 157.612 353.867 158 353.261C158.389 352.655 158.583 351.969 158.583 351.202V348.886C158.393 349.009 158.133 349.123 157.801 349.227C157.48 349.322 157.115 349.412 156.708 349.497C156.301 349.573 155.893 349.644 155.486 349.71C155.079 349.767 154.71 349.819 154.378 349.866C153.668 349.971 153.048 350.136 152.517 350.364C151.987 350.591 151.575 350.899 151.282 351.287C150.988 351.666 150.841 352.139 150.841 352.707C150.841 353.531 151.14 354.161 151.736 354.597C152.342 355.023 153.109 355.236 154.037 355.236ZM181.019 337.182V341.727H167.553V337.182H181.019ZM170.635 359V335.605C170.635 334.024 170.943 332.712 171.559 331.67C172.184 330.629 173.036 329.848 174.115 329.327C175.195 328.806 176.421 328.545 177.794 328.545C178.722 328.545 179.57 328.616 180.337 328.759C181.114 328.901 181.691 329.028 182.07 329.142L180.99 333.688C180.754 333.612 180.46 333.541 180.11 333.474C179.769 333.408 179.418 333.375 179.059 333.375C178.168 333.375 177.548 333.583 177.198 334C176.847 334.407 176.672 334.98 176.672 335.719V359H170.635ZM193.792 359.426C191.586 359.426 189.678 358.957 188.068 358.02C186.467 357.073 185.232 355.757 184.36 354.071C183.489 352.376 183.054 350.411 183.054 348.176C183.054 345.922 183.489 343.953 184.36 342.267C185.232 340.572 186.467 339.256 188.068 338.318C189.678 337.371 191.586 336.898 193.792 336.898C195.999 336.898 197.902 337.371 199.502 338.318C201.112 339.256 202.353 340.572 203.224 342.267C204.095 343.953 204.531 345.922 204.531 348.176C204.531 350.411 204.095 352.376 203.224 354.071C202.353 355.757 201.112 357.073 199.502 358.02C197.902 358.957 195.999 359.426 193.792 359.426ZM193.821 354.739C194.824 354.739 195.663 354.455 196.335 353.886C197.007 353.309 197.514 352.523 197.855 351.528C198.205 350.534 198.38 349.402 198.38 348.134C198.38 346.865 198.205 345.733 197.855 344.739C197.514 343.744 197.007 342.958 196.335 342.381C195.663 341.803 194.824 341.514 193.821 341.514C192.807 341.514 191.955 341.803 191.264 342.381C190.582 342.958 190.066 343.744 189.716 344.739C189.375 345.733 189.204 346.865 189.204 348.134C189.204 349.402 189.375 350.534 189.716 351.528C190.066 352.523 190.582 353.309 191.264 353.886C191.955 354.455 192.807 354.739 193.821 354.739ZM208.466 359V337.182H214.332V340.989H214.559C214.957 339.634 215.625 338.612 216.562 337.92C217.5 337.22 218.579 336.869 219.801 336.869C220.104 336.869 220.431 336.888 220.781 336.926C221.131 336.964 221.439 337.016 221.704 337.082V342.452C221.42 342.366 221.027 342.291 220.525 342.224C220.023 342.158 219.564 342.125 219.147 342.125C218.257 342.125 217.462 342.319 216.761 342.707C216.07 343.086 215.52 343.616 215.113 344.298C214.716 344.98 214.517 345.766 214.517 346.656V359H208.466ZM224.833 359V337.182H230.6V341.031H230.855C231.31 339.753 232.068 338.744 233.128 338.006C234.189 337.267 235.458 336.898 236.935 336.898C238.431 336.898 239.705 337.272 240.756 338.02C241.807 338.759 242.508 339.762 242.858 341.031H243.086C243.531 339.781 244.336 338.782 245.5 338.034C246.675 337.277 248.062 336.898 249.662 336.898C251.698 336.898 253.351 337.546 254.62 338.844C255.898 340.132 256.537 341.959 256.537 344.327V359H250.5V345.52C250.5 344.308 250.178 343.399 249.534 342.793C248.891 342.187 248.086 341.884 247.12 341.884C246.021 341.884 245.164 342.234 244.549 342.935C243.933 343.626 243.625 344.54 243.625 345.676V359H237.759V345.392C237.759 344.322 237.451 343.47 236.836 342.835C236.23 342.201 235.429 341.884 234.435 341.884C233.763 341.884 233.157 342.054 232.617 342.395C232.087 342.726 231.665 343.195 231.353 343.801C231.04 344.398 230.884 345.098 230.884 345.903V359H224.833Z" fill="#6042EA"/>
<g clip-path="url(#clip0_201_7)">
<path d="M116.667 166.667L50 127.778V50L116.667 88.8889V166.667Z" fill="#6042EA"/>
<path d="M194.444 211.111L127.778 172.222V94.4445L194.444 133.333V211.111Z" fill="#6042EA"/>
<path d="M205.556 211.111L272.222 172.222V94.4445L205.556 133.333V211.111Z" fill="#4040B2"/>
<path d="M194.444 300L127.778 261.111V183.333L194.444 222.222V300Z" fill="#6042EA"/>
</g>
<path d="M372.918 359H366.327L376.369 329.909H384.295L394.324 359H387.733L380.446 336.557H380.219L372.918 359ZM372.506 347.565H388.074V352.366H372.506V347.565ZM397.712 359V337.182H403.479V341.031H403.734C404.189 339.753 404.946 338.744 406.007 338.006C407.068 337.267 408.337 336.898 409.814 336.898C411.31 336.898 412.584 337.272 413.635 338.02C414.686 338.759 415.387 339.762 415.737 341.031H415.964C416.41 339.781 417.214 338.782 418.379 338.034C419.554 337.277 420.941 336.898 422.541 336.898C424.577 336.898 426.23 337.546 427.499 338.844C428.777 340.132 429.416 341.959 429.416 344.327V359H423.379V345.52C423.379 344.308 423.057 343.399 422.413 342.793C421.769 342.187 420.964 341.884 419.999 341.884C418.9 341.884 418.043 342.234 417.428 342.935C416.812 343.626 416.504 344.54 416.504 345.676V359H410.638V345.392C410.638 344.322 410.33 343.47 409.714 342.835C409.108 342.201 408.308 341.884 407.314 341.884C406.642 341.884 406.036 342.054 405.496 342.395C404.965 342.726 404.544 343.195 404.232 343.801C403.919 344.398 403.763 345.098 403.763 345.903V359H397.712ZM440.418 359.412C439.026 359.412 437.785 359.17 436.696 358.688C435.607 358.195 434.745 357.471 434.111 356.514C433.486 355.548 433.173 354.346 433.173 352.906C433.173 351.694 433.396 350.676 433.841 349.852C434.286 349.028 434.892 348.366 435.659 347.864C436.426 347.362 437.297 346.983 438.273 346.727C439.258 346.472 440.29 346.292 441.369 346.188C442.638 346.055 443.661 345.932 444.438 345.818C445.214 345.695 445.777 345.515 446.128 345.278C446.478 345.042 446.653 344.691 446.653 344.227V344.142C446.653 343.242 446.369 342.546 445.801 342.054C445.242 341.562 444.447 341.315 443.415 341.315C442.326 341.315 441.459 341.557 440.815 342.04C440.171 342.513 439.745 343.11 439.537 343.83L433.94 343.375C434.224 342.049 434.783 340.903 435.616 339.938C436.45 338.962 437.525 338.214 438.841 337.693C440.167 337.163 441.701 336.898 443.443 336.898C444.655 336.898 445.815 337.04 446.923 337.324C448.041 337.608 449.03 338.048 449.892 338.645C450.763 339.241 451.45 340.009 451.952 340.946C452.454 341.874 452.705 342.987 452.705 344.284V359H446.966V355.974H446.795C446.445 356.656 445.976 357.258 445.389 357.778C444.802 358.29 444.097 358.692 443.273 358.986C442.449 359.27 441.497 359.412 440.418 359.412ZM442.151 355.236C443.041 355.236 443.827 355.061 444.509 354.71C445.19 354.35 445.725 353.867 446.114 353.261C446.502 352.655 446.696 351.969 446.696 351.202V348.886C446.507 349.009 446.246 349.123 445.915 349.227C445.593 349.322 445.228 349.412 444.821 349.497C444.414 349.573 444.007 349.644 443.599 349.71C443.192 349.767 442.823 349.819 442.491 349.866C441.781 349.971 441.161 350.136 440.631 350.364C440.1 350.591 439.688 350.899 439.395 351.287C439.101 351.666 438.955 352.139 438.955 352.707C438.955 353.531 439.253 354.161 439.849 354.597C440.455 355.023 441.223 355.236 442.151 355.236ZM457.286 359V355.392L467.967 342.168V342.011H457.655V337.182H475.254V341.116L465.226 354.014V354.17H475.624V359H457.286ZM489.484 359.426C487.277 359.426 485.369 358.957 483.759 358.02C482.159 357.073 480.923 355.757 480.052 354.071C479.181 352.376 478.745 350.411 478.745 348.176C478.745 345.922 479.181 343.953 480.052 342.267C480.923 340.572 482.159 339.256 483.759 338.318C485.369 337.371 487.277 336.898 489.484 336.898C491.69 336.898 493.594 337.371 495.194 338.318C496.804 339.256 498.044 340.572 498.915 342.267C499.787 343.953 500.222 345.922 500.222 348.176C500.222 350.411 499.787 352.376 498.915 354.071C498.044 355.757 496.804 357.073 495.194 358.02C493.594 358.957 491.69 359.426 489.484 359.426ZM489.512 354.739C490.516 354.739 491.354 354.455 492.026 353.886C492.699 353.309 493.205 352.523 493.546 351.528C493.897 350.534 494.072 349.402 494.072 348.134C494.072 346.865 493.897 345.733 493.546 344.739C493.205 343.744 492.699 342.958 492.026 342.381C491.354 341.803 490.516 341.514 489.512 341.514C488.499 341.514 487.647 341.803 486.955 342.381C486.273 342.958 485.757 343.744 485.407 344.739C485.066 345.733 484.896 346.865 484.896 348.134C484.896 349.402 485.066 350.534 485.407 351.528C485.757 352.523 486.273 353.309 486.955 353.886C487.647 354.455 488.499 354.739 489.512 354.739ZM510.208 346.386V359H504.157V337.182H509.924V341.031H510.18C510.663 339.762 511.472 338.759 512.609 338.02C513.745 337.272 515.123 336.898 516.742 336.898C518.257 336.898 519.578 337.229 520.705 337.892C521.832 338.555 522.708 339.502 523.333 340.733C523.958 341.955 524.271 343.413 524.271 345.108V359H518.219V346.188C518.229 344.852 517.888 343.811 517.197 343.062C516.505 342.305 515.554 341.926 514.342 341.926C513.527 341.926 512.808 342.101 512.183 342.452C511.567 342.802 511.084 343.313 510.734 343.986C510.393 344.649 510.218 345.449 510.208 346.386Z" fill="#252F3E"/>
<path d="M392.469 170.109C392.469 173.187 392.781 175.687 393.375 177.531C394.031 179.359 394.875 181.359 396.031 183.531C396.4 184.105 396.601 184.771 396.609 185.453C396.609 186.281 396.109 187.125 395.047 187.953L389.797 191.453C389.167 191.908 388.417 192.169 387.641 192.203C386.797 192.203 385.969 191.797 385.141 191.047C384.018 189.838 383.013 188.525 382.141 187.125C381.211 185.522 380.351 183.88 379.563 182.203C373.078 189.875 364.937 193.719 355.125 193.719C348.141 193.719 342.562 191.703 338.5 187.703C334.422 183.703 332.344 178.359 332.344 171.688C332.344 164.594 334.844 158.844 339.906 154.5C344.984 150.156 351.719 148 360.281 148C363.094 148 366.016 148.25 369.094 148.656C372.172 149.078 375.344 149.75 378.656 150.5V144.406C378.656 138.063 377.328 133.641 374.75 131.063C372.094 128.469 367.594 127.219 361.187 127.219C358.281 127.219 355.297 127.563 352.219 128.313C349.161 129.04 346.158 129.985 343.234 131.141C342.29 131.568 341.32 131.933 340.328 132.234C339.898 132.376 339.452 132.46 339 132.484C337.828 132.484 337.25 131.641 337.25 129.891V125.797C337.25 124.469 337.406 123.453 337.828 122.891C338.458 122.124 339.261 121.519 340.172 121.125C343.062 119.625 346.562 118.375 350.641 117.375C354.703 116.281 359.031 115.797 363.609 115.797C373.5 115.797 380.734 118.047 385.391 122.547C389.969 127.047 392.297 133.891 392.297 143.078V170.109H392.453H392.469ZM358.703 182.781C361.438 182.781 364.266 182.281 367.266 181.281C370.25 180.281 372.922 178.438 375.156 175.938C376.496 174.403 377.464 172.579 377.984 170.609C378.484 168.594 378.828 166.188 378.828 163.344V159.844C376.304 159.232 373.748 158.762 371.172 158.438C368.581 158.102 365.972 157.93 363.359 157.922C357.781 157.922 353.703 159.016 350.969 161.266C348.219 163.516 346.906 166.688 346.906 170.859C346.906 174.766 347.891 177.687 349.969 179.703C351.969 181.781 354.875 182.781 358.703 182.781ZM425.469 191.797C423.969 191.797 422.969 191.547 422.312 190.953C421.641 190.453 421.062 189.297 420.562 187.703L401.031 123.219C400.646 122.138 400.389 121.016 400.266 119.875C400.266 118.547 400.937 117.797 402.266 117.797H410.422C411.984 117.797 413.078 118.047 413.656 118.625C414.328 119.125 414.828 120.297 415.328 121.875L429.297 177.109L442.266 121.875C442.672 120.219 443.172 119.125 443.828 118.625C444.831 118.011 445.999 117.722 447.172 117.797H453.812C455.406 117.797 456.469 118.047 457.141 118.625C457.812 119.125 458.391 120.297 458.719 121.875L471.859 177.781L486.234 121.875C486.501 120.665 487.077 119.545 487.906 118.625C488.874 118.011 490.013 117.721 491.156 117.797H498.891C500.219 117.797 500.969 118.469 500.969 119.875C500.969 120.297 500.875 120.719 500.813 121.219C500.678 121.928 500.479 122.624 500.219 123.297L480.172 187.781C479.672 189.453 479.094 190.547 478.438 191.047C477.494 191.65 476.384 191.94 475.266 191.875H468.125C466.547 191.875 465.469 191.625 464.797 191.047C464.125 190.453 463.547 189.375 463.219 187.703L450.328 133.906L437.516 187.641C437.109 189.313 436.609 190.391 435.953 190.969C435.281 191.563 434.109 191.813 432.625 191.813H425.469V191.797ZM532.313 194.047C527.998 194.053 523.697 193.549 519.5 192.547C515.344 191.547 512.109 190.453 509.938 189.203C508.609 188.453 507.703 187.625 507.359 186.859C507.042 186.124 506.877 185.332 506.875 184.531V180.281C506.875 178.531 507.531 177.688 508.781 177.688C509.292 177.689 509.798 177.773 510.281 177.937C510.781 178.109 511.531 178.437 512.359 178.781C515.172 180.031 518.266 181.031 521.5 181.703C524.828 182.359 528.063 182.703 531.391 182.703C536.641 182.703 540.703 181.781 543.531 179.953C544.89 179.131 546.006 177.963 546.766 176.568C547.527 175.174 547.904 173.603 547.859 172.016C547.887 170.944 547.703 169.877 547.317 168.877C546.931 167.876 546.35 166.962 545.609 166.188C544.125 164.594 541.297 163.172 537.219 161.844L525.156 158.094C519.094 156.172 514.594 153.328 511.859 149.578C509.183 146.113 507.722 141.863 507.703 137.484C507.703 133.984 508.453 130.891 509.938 128.219C511.438 125.563 513.438 123.219 515.938 121.375C518.437 119.469 521.25 118.047 524.578 117.047C527.906 116.047 531.391 115.625 535.047 115.625C536.891 115.625 538.797 115.703 540.625 115.953C542.531 116.203 544.281 116.547 546.031 116.891C547.688 117.297 549.281 117.703 550.766 118.219C552.266 118.719 553.422 119.219 554.266 119.719C555.247 120.211 556.102 120.922 556.766 121.797C557.3 122.61 557.558 123.575 557.5 124.547V128.469C557.5 130.219 556.844 131.141 555.594 131.141C554.487 131.014 553.415 130.675 552.438 130.141C547.413 127.913 541.964 126.804 536.469 126.891C531.734 126.891 527.984 127.641 525.406 129.234C522.828 130.797 521.5 133.234 521.5 136.656C521.5 138.984 522.328 140.984 524 142.578C525.656 144.156 528.734 145.734 533.141 147.156L544.953 150.906C550.938 152.828 555.266 155.5 557.844 158.922C560.422 162.344 561.656 166.266 561.656 170.609C561.656 174.203 560.922 177.438 559.5 180.281C558.028 183.135 555.961 185.639 553.438 187.625C550.859 189.703 547.781 191.219 544.203 192.297C540.453 193.469 536.547 194.047 532.313 194.047Z" fill="#252F3E"/>
<path fill-rule="evenodd" clip-rule="evenodd" d="M548.016 234.578C520.672 254.844 480.922 265.609 446.75 265.609C398.859 265.609 355.703 247.844 323.109 218.313C320.531 215.969 322.859 212.797 325.922 214.641C361.188 235.156 404.672 247.594 449.672 247.594C480 247.594 513.344 241.25 544.031 228.234C548.609 226.156 552.516 231.234 548.016 234.578Z" fill="#FF9900"/>
<path fill-rule="evenodd" clip-rule="evenodd" d="M559.406 221.562C555.922 217.078 536.297 219.406 527.406 220.484C524.75 220.828 524.328 218.484 526.734 216.734C542.359 205.719 568.063 208.891 571.047 212.563C574.047 216.313 570.219 242.094 555.578 254.437C553.344 256.359 551.188 255.375 552.172 252.875C555.5 244.594 562.906 226 559.406 221.578V221.562Z" fill="#FF9900"/>
<defs>
<clipPath id="clip0_201_7">
<rect width="222.222" height="250" fill="white" transform="translate(50 50)"/>
</clipPath>
</defs>
</svg>
